# xmcd
#
# Track frame offsets: 
#        150
#        18080
#        38760
#        62579
#        77291
#        106167
#        122894
#        141533
#        169985
#        191932
#        208907
#        246001
#        269941
#
# Disc length: 3860 seconds
#
# Revision: 0
# Processed by: cddbd v1.5.1PL0 Copyright (c) Steve Scherf et al.
# Submitted via: ExactAudioCopy v0.95a5
#
DISCID=bf0f120d
DTITLE=Von Morrison - Days Like This and Enlightenment
DYEAR=1900
DGENRE=Blues
TTITLE0=Russian Roulette
TTITLE1=You Don't Know Me
TTITLE2=No Religion
TTITLE3=Days Like This
TTITLE4=In the Afternoon
TTITLE5=Real Real Gone
TTITLE6=Enlightenment
TTITLE7=So Quiet In Here
TTITLE8=Avalon Of The Heart
TTITLE9=Youth Of 1000 Summers
TTITLE10=In the Das Before Rock'n'Roll
TTITLE11=She's My Baby
TTITLE12=Memories
EXTD=
EXTT0=
EXTT1=
EXTT2=
EXTT3=
EXTT4=
EXTT5=
EXTT6=
EXTT7=
EXTT8=
EXTT9=
EXTT10=
EXTT11=
EXTT12=
PLAYORDER=
